<svg xmlns="http://www.w3.org/2000/svg" viewBox="0 0 32 32">
  <style>
    @media (prefers-color-scheme: light) {
      .bg { fill: #ffffff; }
      .ring { fill: #0f0f1a; }
      .sparkle { fill: #0f0f1a; }
      .arc { fill: #0f0f1a; }
    }
    @media (prefers-color-scheme: dark) {
      .bg { fill: #0f0f1a; }
      .ring { fill: #ffffff; }
      .sparkle { fill: #ffffff; }
      .arc { fill: #ffffff; }
    }
  </style>
  <!-- Background -->
  <rect class="bg" width="32" height="32" rx="6" ry="6" fill="#0f0f1a"/>
  <!-- Circle ring - centered at 15,16 -->
  <g class="ring" fill="#ffffff">
    <path d="M15,3.5 C21.9,3.5 27.5,9.1 27.5,16 C27.5,22.9 21.9,28.5 15,28.5 C8.1,28.5 2.5,22.9 2.5,16 C2.5,9.1 8.1,3.5 15,3.5 Z M15,5.5 C9.2,5.5 4.5,10.2 4.5,16 C4.5,21.8 9.2,26.5 15,26.5 C20.8,26.5 25.5,21.8 25.5,16 C25.5,10.2 20.8,5.5 15,5.5 Z"/>
  </g>
  <!-- Horseshoe arc (open bottom) overlay to create gap -->
  <g class="arc" fill="#ffffff" opacity="0.85">
    <path d="M5.2,22 C3.6,19.8 2.5,17 2.5,16 C2.5,9.1 8.1,3.5 15,3.5 C21.9,3.5 27.5,9.1 27.5,16 C27.5,17 26.4,19.8 24.8,22 L23.2,20.5 C24.5,18.6 25.5,17.2 25.5,16 C25.5,10.2 20.8,5.5 15,5.5 C9.2,5.5 4.5,10.2 4.5,16 C4.5,17.2 5.5,18.6 6.8,20.5 Z" opacity="0"/>
  </g>
  <!-- Large sparkle star (top-right) -->
  <g class="sparkle" fill="#ffffff">
    <path d="M25.5,6 C25.5,6 26.1,7.8 26.6,9.3 C26.9,10.4 27.8,11.3 28.9,11.6 C30.4,12.1 32,12.7 32,12.7 C32,12.7 30.4,13.2 28.9,13.7 C27.8,14 26.9,14.9 26.6,16 C26.1,17.5 25.5,19.3 25.5,19.3 C25.5,19.3 24.9,17.5 24.4,16 C24.1,14.9 23.2,14 22.1,13.7 C20.6,13.2 19,12.7 19,12.7 C19,12.7 20.6,12.1 22.1,11.6 C23.2,11.3 24.1,10.4 24.4,9.3 C24.9,7.8 25.5,6 25.5,6 Z"/>
  </g>
  <!-- Small sparkle (bottom-left) -->
  <g class="sparkle" fill="#ffffff" opacity="0.7">
    <path d="M5,24 C5,24 5.2,24.7 5.4,25.2 C5.5,25.6 5.8,25.9 6.2,26 C6.7,26.2 7.4,26.4 7.4,26.4 C7.4,26.4 6.7,26.6 6.2,26.8 C5.8,26.9 5.5,27.2 5.4,27.6 C5.2,28.1 5,28.8 5,28.8 C5,28.8 4.8,28.1 4.6,27.6 C4.5,27.2 4.2,26.9 3.8,26.8 C3.3,26.6 2.6,26.4 2.6,26.4 C2.6,26.4 3.3,26.2 3.8,26 C4.2,25.9 4.5,25.6 4.6,25.2 C4.8,24.7 5,24 5,24 Z"/>
  </g>
</svg>
